<?xml version="1.0" encoding="UTF-8" standalone="no"?>
<svg
   xmlns:dc="http://purl.org/dc/elements/1.1/"
   xmlns:cc="http://creativecommons.org/ns#"
   xmlns:rdf="http://www.w3.org/1999/02/22-rdf-syntax-ns#"
   xmlns:svg="http://www.w3.org/2000/svg"
   xmlns="http://www.w3.org/2000/svg"
   xmlns:sodipodi="http://sodipodi.sourceforge.net/DTD/sodipodi-0.dtd"
   xmlns:inkscape="http://www.inkscape.org/namespaces/inkscape"
   data-name="Warstwa 1"
   viewBox="0 0 100 100"
   x="0px"
   y="0px"
   version="1.1"
   id="svg3054"
   sodipodi:docname="the_magician_paper.svg"
   inkscape:version="0.92.2 5c3e80d, 2017-08-06">
  <metadata
     id="metadata3060">
    <rdf:RDF>
      <cc:Work
         rdf:about="">
        <dc:format>image/svg+xml</dc:format>
        <dc:type
           rdf:resource="http://purl.org/dc/dcmitype/StillImage" />
      </cc:Work>
    </rdf:RDF>
  </metadata>
  <defs
     id="defs3058" />
  <sodipodi:namedview
     pagecolor="#ffffff"
     bordercolor="#666666"
     borderopacity="1"
     objecttolerance="10"
     gridtolerance="10"
     guidetolerance="10"
     inkscape:pageopacity="0"
     inkscape:pageshadow="2"
     inkscape:window-width="640"
     inkscape:window-height="480"
     id="namedview3056"
     showgrid="false"
     inkscape:zoom="2.36"
     inkscape:cx="65.466102"
     inkscape:cy="50"
     inkscape:window-x="0"
     inkscape:window-y="0"
     inkscape:window-maximized="0"
     inkscape:current-layer="svg3054" />
  <title
     id="title3042">hand_file</title>
  <path
     d="M63.63,78H63V73.17L57.83,68h-10l-8.32-8.32-4.35-1.42L24,60H6V80H23.17l14,14H62.41L86,83.32V76.56l-7-5ZM82,80.68,61.59,90H38.83l-14-14H10V64H24.13l10.7-1.64,2.53.83L46.17,72h10L59,74.83V78H44.83l-5.42-5.41-2.82,2.82L43.17,82h21.2l14-5.93L82,78.63Z"
     id="path3044" />
  <path
     d="M80.83,6H50V58H94V19.17ZM90,54H54V10H79.17L90,20.83Z"
     id="path3046"
     style="fill:#ffcc00" />
  <rect
     x="60"
     y="28"
     width="24"
     height="4"
     id="rect3048"
     style="fill:#ffd42a" />
  <rect
     x="60"
     y="36"
     width="24"
     height="4"
     id="rect3050"
     style="fill:#ffd42a" />
  <rect
     x="60"
     y="44"
     width="14"
     height="4"
     id="rect3052"
     style="fill:#ffdd55" />
</svg>
